<svg width="275" height="378" viewBox="0 0 275 378" fill="none" xmlns="http://www.w3.org/2000/svg">
<circle cx="223.927" cy="218.404" r="7.28101" transform="rotate(-23.0127 223.927 218.404)" fill="url(#paint0_radial_4_35)"/>
<circle r="2.427" transform="matrix(-0.920418 0.390936 0.390936 0.920418 136.161 75.6229)" fill="url(#paint1_radial_4_35)"/>
<circle r="2.427" transform="matrix(-0.920418 0.390936 0.390936 0.920418 78.8158 238.603)" fill="url(#paint2_radial_4_35)"/>
<circle r="2.427" transform="matrix(-0.920418 0.390936 0.390936 0.920418 52.9658 39.3874)" fill="url(#paint3_radial_4_35)"/>
<circle r="2.427" transform="matrix(-0.920418 0.390936 0.390936 0.920418 144.274 325.315)" fill="url(#paint4_radial_4_35)"/>
<circle r="2.427" transform="matrix(-0.920418 0.390936 0.390936 0.920418 247.979 326.47)" fill="url(#paint5_radial_4_35)"/>
<path d="M52.6466 39.523L136.161 75.623L223.927 218.404M223.927 218.404L247.979 326.47L144.274 325.315L78.8157 238.603L223.927 218.404Z" stroke="url(#paint6_linear_4_35)" stroke-width="0.5"/>
<defs>
<radialGradient id="paint0_radial_4_35" cx="0" cy="0" r="1" gradientUnits="userSpaceOnUse" gradientTransform="translate(223.927 218.404) rotate(90) scale(7.28101)">
<stop stop-color="#C4C4C4"/>
<stop offset="1" stop-color="#C4C4C4" stop-opacity="0"/>
</radialGradient>
<radialGradient id="paint1_radial_4_35" cx="0" cy="0" r="1" gradientUnits="userSpaceOnUse" gradientTransform="translate(2.427 2.427) rotate(90) scale(2.427)">
<stop stop-color="#C4C4C4"/>
<stop offset="1" stop-color="#C4C4C4" stop-opacity="0"/>
</radialGradient>
<radialGradient id="paint2_radial_4_35" cx="0" cy="0" r="1" gradientUnits="userSpaceOnUse" gradientTransform="translate(2.427 2.427) rotate(90) scale(2.427)">
<stop stop-color="#C4C4C4"/>
<stop offset="1" stop-color="#C4C4C4" stop-opacity="0"/>
</radialGradient>
<radialGradient id="paint3_radial_4_35" cx="0" cy="0" r="1" gradientUnits="userSpaceOnUse" gradientTransform="translate(2.427 2.427) rotate(90) scale(2.427)">
<stop stop-color="#C4C4C4"/>
<stop offset="1" stop-color="#C4C4C4" stop-opacity="0"/>
</radialGradient>
<radialGradient id="paint4_radial_4_35" cx="0" cy="0" r="1" gradientUnits="userSpaceOnUse" gradientTransform="translate(2.427 2.427) rotate(90) scale(2.427)">
<stop stop-color="#C4C4C4"/>
<stop offset="1" stop-color="#C4C4C4" stop-opacity="0"/>
</radialGradient>
<radialGradient id="paint5_radial_4_35" cx="0" cy="0" r="1" gradientUnits="userSpaceOnUse" gradientTransform="translate(2.427 2.427) rotate(90) scale(2.427)">
<stop stop-color="#C4C4C4"/>
<stop offset="1" stop-color="#C4C4C4" stop-opacity="0"/>
</radialGradient>
<linearGradient id="paint6_linear_4_35" x1="113.392" y1="189.638" x2="279.406" y2="378.29" gradientUnits="userSpaceOnUse">
<stop stop-color="white"/>
<stop offset="1" stop-color="white" stop-opacity="0"/>
</linearGradient>
</defs>
</svg>
